<?xml version="1.0" encoding="UTF-8"?>
<svg id="logo" xmlns="http://www.w3.org/2000/svg" xmlns:xlink="http://www.w3.org/1999/xlink" viewBox="0 0 350 350">
  <defs>
    <style>
      .cls-1 {
        fill: url(#linear-gradient-8);
      }

      .cls-2 {
        fill: url(#linear-gradient-5);
      }

      .cls-3 {
        fill: url(#linear-gradient-4);
      }

      .cls-4 {
        fill: url(#linear-gradient-3);
      }

      .cls-5 {
        fill: url(#linear-gradient-2);
      }

      .cls-6 {
        fill: url(#linear-gradient);
      }

      .cls-7 {
        fill: url(#linear-gradient-6);
      }

      .cls-7, .cls-8 {
        opacity: .56;
      }

      .cls-8 {
        fill: url(#linear-gradient-7);
      }
    </style>
    <linearGradient id="linear-gradient" x1="134.87" y1="293.55" x2="200.52" y2="64.92" gradientUnits="userSpaceOnUse">
      <stop offset="0" stop-color="#007578"/>
      <stop offset=".54" stop-color="#00b388"/>
      <stop offset="1" stop-color="#66d1b8"/>
    </linearGradient>
    <linearGradient id="linear-gradient-2" x1="123.31" y1="242.89" x2="141.44" y2="153.74" gradientUnits="userSpaceOnUse">
      <stop offset="0" stop-color="#3677ae"/>
      <stop offset=".54" stop-color="#36c6e9"/>
      <stop offset="1" stop-color="#9ce5ff"/>
    </linearGradient>
    <linearGradient id="linear-gradient-3" x1="165.38" y1="242.72" x2="182.76" y2="134.68" gradientUnits="userSpaceOnUse">
      <stop offset="0" stop-color="#005378"/>
      <stop offset=".54" stop-color="#00abb3"/>
      <stop offset="1" stop-color="#66ccd1"/>
    </linearGradient>
    <linearGradient id="linear-gradient-4" x1="222.61" y1="234.97" x2="233.76" y2="109.86" xlink:href="#linear-gradient"/>
    <linearGradient id="linear-gradient-5" x1="236.54" y1="95.41" x2="82.88" y2="364.67" xlink:href="#linear-gradient"/>
    <linearGradient id="linear-gradient-6" x1="234.56" y1="124.66" x2="229.22" y2="64.05" gradientUnits="userSpaceOnUse">
      <stop offset="0" stop-color="#036"/>
      <stop offset=".09" stop-color="#036" stop-opacity=".8"/>
      <stop offset=".23" stop-color="#036" stop-opacity=".51"/>
      <stop offset=".39" stop-color="#036" stop-opacity=".28"/>
      <stop offset=".56" stop-color="#036" stop-opacity=".12"/>
      <stop offset=".75" stop-color="#036" stop-opacity=".03"/>
      <stop offset="1" stop-color="#036" stop-opacity="0"/>
    </linearGradient>
    <linearGradient id="linear-gradient-7" x1="171.51" y1="259.48" x2="171.02" y2="130.97" xlink:href="#linear-gradient-6"/>
    <linearGradient id="linear-gradient-8" x1="193.82" y1="160.64" x2="212.06" y2="108.53" gradientUnits="userSpaceOnUse">
      <stop offset=".46" stop-color="#036" stop-opacity="0"/>
      <stop offset=".56" stop-color="#036" stop-opacity=".05"/>
      <stop offset=".67" stop-color="#036" stop-opacity=".18"/>
      <stop offset=".78" stop-color="#036" stop-opacity=".41"/>
      <stop offset=".91" stop-color="#036" stop-opacity=".72"/>
      <stop offset="1" stop-color="#036"/>
    </linearGradient>
  </defs>
  <path class="cls-6" d="M109.33,165.48c.03-.08.05-.14.1-.24,3.74-10.89,10-21.1,18.06-29.83,2.18-2.47,4.55-4.89,7.15-7.21.08-.06.18-.14.24-.21,6.74-5.99,14.91-11.34,24.81-15.11,4.08-1.58,8.09-2.71,11.88-3.52,9.01-1.96,16.56-2.1,20.02-2.1,5.21.24,10.19,1.07,14.87,2.45,4.28,1.26,8.31,2.98,12.04,5.14,10.81-10.34,31.49-11.98,42.71,8.38-2.6-4.92-5.72-9.56-9.38-13.87-2.36-2.8-4.91-5.38-7.6-7.74h-.02c-12.96-11.43-29.51-18.01-47.92-20.02-16.96-1.85-35.31,2.15-52.27,10.29-4.5,2.16-22.9,11.06-39.26,29.72-.03.05-.08.11-.13.16-.24.24-15.1,16.05-20.85,38.03v.03c-1.27,4.24-2.28,8.63-3.03,13.11-4.25,25.5,1.94,49.61,17.39,67.84,12.5,14.74,27.12,20.93,35.28,23.62.35.13.72.25,1.08.37,2.05.79,7.35,2.17,12.26,2.93,10.01,1.63,19.07,1.27,25.4.56,5.11-.56,10.18-1.51,15.15-2.87,9.7-2.6,19.05-6.61,27.74-11.78,5.73-3.39,11.18-7.29,16.28-11.63,3.84-3.26,7.49-6.78,10.85-10.51-2.27,2.44-11.41,12.3-26.55,19.16-35.09,15.79-70.04,5.39-80.04.48-9.78-4.68-17.07-10.92-22.22-18.27-12.18-17.3-12.42-40.74-5-64.47.32-.96.62-1.93.94-2.88Z"/>
  <g>
    <path class="cls-5" d="M124.65,169.76h25.53c-4.27,22.98-8.52,45.91-12.47,68.83-9.01-3.03-15.11-8.9-20.37-15.32-.64-.78-1.24-1.58-1.82-2.39,3.06-16.99,6.1-34.05,9.13-51.12Z"/>
    <path class="cls-4" d="M169.46,138.9h26.8c-6.2,34.03-12.61,68.18-19.02,102.29-5.13,1.15-10.38,1.72-15.69,1.72-3.46,0-6.83-.25-10.1-.76-.06-.02-.11-.02-.18-.03,3.07-17.53,6.16-35.05,9.25-52.59,2.98-16.88,5.94-33.75,8.92-50.63Z"/>
    <path class="cls-3" d="M261.21,123.23c-11.23-20.35-31.9-18.71-42.71-8.38-7.58,7.23-5.04,2.48-26.04,121.47,9.06-3.9,17.47-9.41,24.8-16.13,1.77-1.62,3.49-3.33,5.11-5.1,4.65-24.56,9.32-49.21,13.92-74.37.41-2.25.96-4.24,1.64-6,6.07-16.01,21.75-14.08,24.46-9.19-.37-.76-.76-1.53-1.18-2.29Z"/>
    <path class="cls-2" d="M262.39,125.52c-2.71-4.89-18.39-6.82-24.46,9.19,4.4,8.03,6.66,17.23,6.66,27.06,0,21.14-9.94,40.13-22.22,53.32-1.62,1.77-3.34,3.47-5.11,5.1-7.33,6.72-15.73,12.23-24.8,16.13-7.31,3.19-18.24,6.59-30.9,6.59-3.46,0-6.83-.25-10.1-.76-.06-.02-.11-.02-.17-.03-5.04-.74-13.45-3.47-13.58-3.52-9.01-3.03-15.11-8.9-20.37-15.32-15.79-19.34-11.58-42.53-10.99-46.09.49-2.98,1.18-5.91,2.04-8.82-7.42,23.73-7.18,47.17,5,64.47,5.14,7.34,12.44,13.58,22.22,18.27,8.91,4.37,44.44,15.71,80.04-.51,6.05-2.76,16.33-8.15,26.55-19.13l.19-.19c13.74-15.16,23.49-33.87,26.85-54.08,3.07-18.52.64-36.31-6.85-51.66Z"/>
  </g>
  <path class="cls-7" d="M251.83,109.35c3.66,4.32,6.78,8.95,9.38,13.87-11.23-20.35-31.9-18.71-42.71-8.38-3.73-2.17-7.76-3.89-12.04-5.14,8.78-9.75,24.21-14.4,37.76-8.09h.02c2.69,2.36,5.24,4.94,7.6,7.74Z"/>
  <path class="cls-8" d="M139.59,227.83c-.64,3.58-1.26,7.18-1.88,10.77-9.01-3.03-15.11-8.9-20.37-15.32-.64-.78-1.24-1.58-1.82-2.39.35-1.93.7-3.85,1.04-5.8,4.4,4.55,9.56,8.47,16.37,10.77.08.03,3.14,1.02,6.66,1.97ZM156.79,230.17c-1.13,0-2.26-.03-3.38-.1-.72,4.01-1.42,8.03-2.12,12.04.06.02.11.02.17.03,3.26.51,6.64.76,10.1.76.67,0,1.32-.02,1.99-.03.51-.02,1.02-.03,1.53-.06.65-.03,1.29-.06,1.93-.11.53-.05,1.05-.1,1.56-.14,1.62-.16,3.23-.37,4.81-.62.65-.11,1.31-.22,1.94-.35.64-.13,1.29-.25,1.93-.4.92-4.91,1.85-9.83,2.76-14.73-6.86,2.2-14.92,3.71-23.22,3.71ZM217.59,202.34c-1.62,1.77-3.34,3.47-5.11,5.1-5.21,4.78-10.96,8.95-17.1,12.36l-2.91,16.51c9.06-3.9,17.47-9.41,24.8-16.13,1.77-1.62,3.49-3.33,5.11-5.1,1.58-8.3,3.14-16.59,4.71-24.94-2.77,4.33-5.97,8.41-9.49,12.2Z"/>
  <path class="cls-1" d="M262.39,125.52c-2.71-4.89-18.39-6.82-24.46,9.19,4.4,8.03,6.66,17.23,6.66,27.06,0,21.14-9.94,40.13-22.22,53.32-1.62,1.77-3.34,3.47-5.11,5.1-7.33,6.72-15.73,12.23-24.8,16.13-7.31,3.19-18.24,6.59-30.9,6.59-3.46,0-6.83-.25-10.1-.76-.06-.02-.11-.02-.17-.03-5.04-.74-13.45-3.47-13.58-3.52-9.01-3.03-15.11-8.9-20.37-15.32-15.79-19.34-11.58-42.53-10.99-46.09.49-2.98,1.18-5.91,2.04-8.82-7.42,23.73-7.18,47.17,5,64.47,5.14,7.34,12.44,13.58,22.22,18.27,8.91,4.37,44.44,15.71,80.04-.51,6.05-2.76,16.33-8.15,26.55-19.13l.19-.19c13.74-15.16,23.49-33.87,26.85-54.08,3.07-18.52.64-36.31-6.85-51.66Z"/>
</svg>